<svg xmlns="http://www.w3.org/2000/svg" xmlns:xlink="http://www.w3.org/1999/xlink" viewBox="0,0,256,256" width="48px" height="48px"><g fill="none" fill-rule="nonzero" stroke="none" stroke-width="1" stroke-linecap="butt" stroke-linejoin="miter" stroke-miterlimit="10" stroke-dasharray="" stroke-dashoffset="0" font-family="none" font-weight="none" font-size="none" text-anchor="none" style="mix-blend-mode: normal"><g transform="scale(5.33333,5.33333)"><path d="M24,4c-11.04569,0 -20,8.95431 -20,20c0,11.04569 8.95431,20 20,20c11.04569,0 20,-8.95431 20,-20c0,-11.04569 -8.95431,-20 -20,-20z" fill="#5a5278"></path><path d="M30.515,31.366c-1.446,0.609 -3.478,1.137 -4.935,0.192c-1.159,-0.752 -1.58,-2.116 -1.58,-2.85v-7.708h5v-5h-5v-5h-5v17.707c0,2.064 1.002,5.124 3.828,6.956c1.08,0.7 2.623,1.336 4.665,1.336c1.419,0 3.08,-0.306 4.993,-1.113z" fill="#ffffff"></path></g></g></svg>